<svg width="235" height="24" viewBox="0 0 235 24" fill="none" xmlns="http://www.w3.org/2000/svg">
<path d="M9.5 17.0332C9.5 16.3405 9.73503 15.7591 10.2051 15.2891C10.6999 14.7943 11.2936 14.5469 11.9863 14.5469H17.6641L16.6992 11.8008C16.3034 10.7865 15.9076 9.83398 15.5117 8.94336C15.1406 8.02799 14.7077 7.19922 14.2129 6.45703C13.7676 5.71484 13.2604 5.31901 12.6914 5.26953C12.0977 5.31901 11.5658 5.71484 11.0957 6.45703C10.6257 7.19922 10.1927 8.02799 9.79688 8.94336C9.42578 9.83398 9.04232 10.7865 8.64648 11.8008L5.12109 21.4492C4.8737 21.9688 4.55208 22.4017 4.15625 22.748C3.78516 23.0697 3.21615 23.2305 2.44922 23.2305C1.73177 23.2305 1.13802 22.9831 0.667969 22.4883C0.222656 21.9935 0.0247396 21.3997 0.0742188 20.707C0.0989583 20.3854 0.173177 20.0885 0.296875 19.8164L4.37891 9.27734C5.51693 6.50651 6.65495 4.26758 7.79297 2.56055C8.90625 0.878255 10.5391 0.0247396 12.6914 0C14.819 0.0247396 16.4395 0.878255 17.5527 2.56055C18.6908 4.2181 19.8288 6.45703 20.9668 9.27734L25.0488 19.8164C25.1725 20.0885 25.2467 20.3854 25.2715 20.707C25.321 21.3997 25.1107 21.9935 24.6406 22.4883C24.1953 22.9831 23.6139 23.2305 22.8965 23.2305C22.0801 23.2305 21.474 23.0697 21.0781 22.748C20.707 22.4017 20.3978 21.9688 20.1504 21.4492L19.4453 19.5195H11.9863C11.2936 19.5195 10.7122 19.2721 10.2422 18.7773C9.7474 18.3073 9.5 17.7259 9.5 17.0332ZM31.543 23.2305C30.875 23.2057 30.306 22.9707 29.8359 22.5254C29.3659 22.0553 29.1185 21.4863 29.0938 20.8184V11.5781C29.1185 9.82161 29.3659 8.16406 29.8359 6.60547C30.3307 5.04688 31.1348 3.73568 32.248 2.67188C33.3861 1.58333 34.821 0.989583 36.5527 0.890625H50.877C51.5449 0.915365 52.1016 1.16276 52.5469 1.63281C53.0169 2.07812 53.2643 2.63477 53.2891 3.30273C53.2891 3.99544 53.054 4.58919 52.584 5.08398C52.1387 5.57878 51.5697 5.83854 50.877 5.86328H37.8145C36.8743 5.91276 36.0951 6.27148 35.4766 6.93945C34.8581 7.60742 34.4622 8.37435 34.2891 9.24023C34.1406 10.0814 34.0788 11.0091 34.1035 12.0234V20.8184C34.0788 21.5111 33.819 22.0924 33.3242 22.5625C32.8294 23.0078 32.2357 23.2305 31.543 23.2305ZM35.8477 13.4707C35.8477 12.778 36.0951 12.1966 36.5898 11.7266C37.0599 11.2318 37.6413 10.9844 38.334 10.9844H50.877C51.5697 10.9844 52.151 11.2318 52.6211 11.7266C53.1159 12.1966 53.3633 12.778 53.3633 13.4707C53.3633 14.1634 53.1283 14.7572 52.6582 15.252C52.1634 15.722 51.5697 15.957 50.877 15.957H38.334C37.6413 15.957 37.0475 15.722 36.5527 15.252C36.0827 14.7572 35.8477 14.1634 35.8477 13.4707ZM55.9609 20.2988C55.9609 19.6061 56.196 19.0247 56.666 18.5547C57.1608 18.0599 57.7546 17.8125 58.4473 17.8125H65.5723V5.86328H58.4473C57.7546 5.86328 57.1732 5.61589 56.7031 5.12109C56.2083 4.65104 55.9609 4.06966 55.9609 3.37695C55.9609 2.68424 56.196 2.10286 56.666 1.63281C57.1608 1.13802 57.7546 0.890625 58.4473 0.890625H77.6699C78.3626 0.890625 78.9564 1.12565 79.4512 1.5957C79.9212 2.09049 80.1562 2.68424 80.1562 3.37695C80.1562 4.06966 79.9089 4.66341 79.4141 5.1582C78.944 5.62826 78.3626 5.86328 77.6699 5.86328H70.582V17.8125H77.6699C78.3626 17.8125 78.9564 18.0475 79.4512 18.5176C79.9212 19.0124 80.1562 19.6061 80.1562 20.2988C80.1562 20.9915 79.9089 21.5853 79.4141 22.0801C78.944 22.5501 78.3626 22.7852 77.6699 22.7852H58.4473C57.7546 22.7852 57.1732 22.5378 56.7031 22.043C56.2083 21.5729 55.9609 20.9915 55.9609 20.2988ZM107.988 3.37695C107.988 4.06966 107.741 4.65104 107.246 5.12109C106.776 5.61589 106.195 5.86328 105.502 5.86328H90.6582C90.1882 5.88802 89.7923 5.99935 89.4707 6.19727C89.1738 6.37044 88.9512 6.58073 88.8027 6.82812C88.6543 7.05078 88.5801 7.28581 88.5801 7.5332C88.5801 7.7806 88.6543 8.02799 88.8027 8.27539C88.9512 8.49805 89.1738 8.70833 89.4707 8.90625C89.7923 9.07943 90.1882 9.17839 90.6582 9.20312H101.197C102.929 9.2526 104.352 9.66081 105.465 10.4277C106.603 11.1699 107.407 12.0358 107.877 13.0254C108.372 13.9902 108.619 14.9798 108.619 15.9941C108.619 16.9837 108.372 17.9733 107.877 18.9629C107.382 19.9277 106.578 20.7936 105.465 21.5605C104.352 22.3027 102.929 22.6738 101.197 22.6738H100.975C100.826 22.6986 100.678 22.7109 100.529 22.7109H86.502C85.8092 22.7109 85.2155 22.4759 84.7207 22.0059C84.2507 21.5111 84.0156 20.9173 84.0156 20.2246C84.0156 19.5319 84.263 18.9505 84.7578 18.4805C85.2279 17.9857 85.8092 17.7383 86.502 17.7383H101.42C101.89 17.763 102.273 17.6764 102.57 17.4785C102.892 17.2806 103.127 17.0579 103.275 16.8105C103.424 16.5384 103.498 16.2663 103.498 15.9941C103.498 15.821 103.424 15.5859 103.275 15.2891C103.127 14.9674 102.892 14.7077 102.57 14.5098C102.273 14.3118 101.89 14.2005 101.42 14.1758H90.8809C89.1491 14.1263 87.7142 13.7305 86.5762 12.9883C85.4629 12.2461 84.6589 11.4049 84.1641 10.4648C83.694 9.5 83.459 8.52279 83.459 7.5332C83.459 6.56836 83.7064 5.61589 84.2012 4.67578C84.696 3.71094 85.5 2.85742 86.6133 2.11523C87.7266 1.37305 89.1491 0.977214 90.8809 0.927734H91.1035C91.252 0.902995 91.4004 0.890625 91.5488 0.890625H105.502C106.195 0.890625 106.776 1.13802 107.246 1.63281C107.741 2.10286 107.988 2.68424 107.988 3.37695ZM115.336 0.296875C116.004 0.321615 116.573 0.56901 117.043 1.03906C117.513 1.48438 117.76 2.04102 117.785 2.70898V8.90625H129.846V2.70898C129.87 2.01628 130.13 1.44727 130.625 1.00195C131.12 0.531901 131.714 0.296875 132.406 0.296875C133.074 0.321615 133.643 0.56901 134.113 1.03906C134.583 1.48438 134.831 2.04102 134.855 2.70898V20.8926C134.707 22.377 133.891 23.181 132.406 23.3047C131.714 23.3047 131.107 23.082 130.588 22.6367C130.093 22.1667 129.846 21.5853 129.846 20.8926V13.8789H117.785V20.8926C117.637 22.377 116.82 23.181 115.336 23.3047C114.643 23.3047 114.037 23.082 113.518 22.6367C113.023 22.1667 112.775 21.5853 112.775 20.8926V2.70898C112.8 2.01628 113.06 1.44727 113.555 1.00195C114.049 0.531901 114.643 0.296875 115.336 0.296875ZM147.807 17.0332C147.807 16.3405 148.042 15.7591 148.512 15.2891C149.007 14.7943 149.6 14.5469 150.293 14.5469H155.971L155.006 11.8008C154.61 10.7865 154.214 9.83398 153.818 8.94336C153.447 8.02799 153.014 7.19922 152.52 6.45703C152.074 5.71484 151.567 5.31901 150.998 5.26953C150.404 5.31901 149.872 5.71484 149.402 6.45703C148.932 7.19922 148.499 8.02799 148.104 8.94336C147.732 9.83398 147.349 10.7865 146.953 11.8008L143.428 21.4492C143.18 21.9688 142.859 22.4017 142.463 22.748C142.092 23.0697 141.523 23.2305 140.756 23.2305C140.038 23.2305 139.445 22.9831 138.975 22.4883C138.529 21.9935 138.331 21.3997 138.381 20.707C138.406 20.3854 138.48 20.0885 138.604 19.8164L142.686 9.27734C143.824 6.50651 144.962 4.26758 146.1 2.56055C147.213 0.878255 148.846 0.0247396 150.998 0C153.126 0.0247396 154.746 0.878255 155.859 2.56055C156.997 4.2181 158.135 6.45703 159.273 9.27734L163.355 19.8164C163.479 20.0885 163.553 20.3854 163.578 20.707C163.628 21.3997 163.417 21.9935 162.947 22.4883C162.502 22.9831 161.921 23.2305 161.203 23.2305C160.387 23.2305 159.781 23.0697 159.385 22.748C159.014 22.4017 158.704 21.9688 158.457 21.4492L157.752 19.5195H150.293C149.6 19.5195 149.019 19.2721 148.549 18.7773C148.054 18.3073 147.807 17.7259 147.807 17.0332ZM171.111 23.3789C170.122 23.3789 169.293 23.0326 168.625 22.3398C167.982 21.6471 167.66 20.7812 167.66 19.7422C167.66 18.7031 167.982 17.8372 168.625 17.1445C169.293 16.4518 170.122 16.1055 171.111 16.1055C172.101 16.1055 172.93 16.4518 173.598 17.1445C174.266 17.8372 174.6 18.7031 174.6 19.7422C174.6 20.7812 174.266 21.6471 173.598 22.3398C172.93 23.0326 172.101 23.3789 171.111 23.3789Z" fill="white"/>
<path d="M182.17 0.296875C182.838 0.321615 183.407 0.56901 183.877 1.03906C184.347 1.48438 184.594 2.04102 184.619 2.70898V20.8926C184.471 22.377 183.654 23.181 182.17 23.3047C181.477 23.3047 180.871 23.082 180.352 22.6367C179.857 22.1667 179.609 21.5853 179.609 20.8926V2.70898C179.634 2.01628 179.894 1.44727 180.389 1.00195C180.883 0.531901 181.477 0.296875 182.17 0.296875ZM188.516 6.82812C190.173 5.71484 192.412 4.58919 195.232 3.45117L201.318 0.853516C201.59 0.729818 201.887 0.655599 202.209 0.630859C202.902 0.58138 203.495 0.791667 203.99 1.26172C204.485 1.70703 204.732 2.28841 204.732 3.00586C204.732 3.82227 204.559 4.42839 204.213 4.82422C203.891 5.19531 203.471 5.50456 202.951 5.75195L197.756 7.71875C196.742 8.11458 195.777 8.51042 194.861 8.90625C193.971 9.27734 193.154 9.71029 192.412 10.2051C191.67 10.6504 191.274 11.1576 191.225 11.7266C191.274 12.2708 191.67 12.778 192.412 13.248C193.154 13.7428 193.971 14.1882 194.861 14.584C195.777 14.9551 196.742 15.3385 197.756 15.7344L203.545 17.8496C204.064 18.097 204.485 18.4186 204.807 18.8145C205.153 19.1855 205.326 19.7793 205.326 20.5957C205.326 21.3132 205.079 21.9069 204.584 22.377C204.089 22.8223 203.495 23.0202 202.803 22.9707C202.481 22.946 202.184 22.8717 201.912 22.748L195.232 20.002C192.412 18.8639 190.161 17.7383 188.479 16.625C186.821 15.487 185.98 13.8542 185.955 11.7266C185.98 9.59896 186.833 7.96615 188.516 6.82812ZM216.125 0.890625H231.785C232.478 0.915365 233.047 1.17513 233.492 1.66992C233.962 2.16471 234.197 2.75846 234.197 3.45117C234.074 4.93555 233.27 5.73958 231.785 5.86328H217.387C216.447 5.91276 215.667 6.27148 215.049 6.93945C214.43 7.60742 213.973 8.37435 213.676 9.24023C213.404 10.0814 213.268 10.9473 213.268 11.8379C213.268 12.7285 213.404 13.6068 213.676 14.4727C213.973 15.3138 214.43 16.0684 215.049 16.7363C215.667 17.4043 216.447 17.763 217.387 17.8125H228.668C229.113 17.7878 229.348 17.5404 229.373 17.0703V14.918C229.348 14.4232 229.113 14.1758 228.668 14.1758H219.168C218.475 14.1758 217.882 13.9408 217.387 13.4707C216.917 12.9759 216.682 12.3822 216.682 11.6895C216.682 10.9967 216.917 10.403 217.387 9.9082C217.882 9.43815 218.475 9.20312 219.168 9.20312H231.859C232.552 9.20312 233.146 9.43815 233.641 9.9082C234.086 10.3783 234.321 10.9473 234.346 11.6152V11.6895V20.373C234.321 21.041 234.086 21.5977 233.641 22.043C233.171 22.513 232.602 22.7604 231.934 22.7852H216.125C214.393 22.6862 212.958 22.0306 211.82 20.8184C210.707 19.5814 209.903 18.1836 209.408 16.625C208.938 15.0664 208.703 13.4707 208.703 11.8379C208.703 10.2051 208.951 8.60938 209.445 7.05078C209.94 5.49219 210.744 4.10677 211.857 2.89453C212.971 1.65755 214.393 0.989583 216.125 0.890625Z" fill="#013475"/>
</svg>
